<svg xmlns="http://www.w3.org/2000/svg" width="262" height="69" viewBox="0 0 262 69" version="1.1"><path d="M 57.625 3.242 C 59.572 7.007, 60.560 17.779, 59.566 24.406 C 58.310 32.781, 57 29.255, 57 17.500 L 57 6 48.500 6 L 40 6 40 17.468 L 40 28.937 28.250 29.218 L 16.500 29.500 16.500 38 L 16.500 46.500 28.250 46.782 C 37.397 47.001, 40 47.367, 40 48.434 C 40 50.246, 34.919 51.962, 27.442 52.675 C 20.333 53.354, 11.586 51.217, 5.658 47.354 C 1.251 44.482, -0.451 44.934, 3.108 48.031 C 6.584 51.055, 14.705 54.785, 20.784 56.148 C 24.882 57.067, 27.547 57.061, 32.663 56.118 C 45.411 53.769, 55.150 46.507, 60.693 35.217 C 63.200 30.110, 63.500 28.433, 63.500 19.500 C 63.500 11.315, 63.102 8.638, 61.306 4.750 C 60.041 2.010, 58.443 -0, 57.531 -0 C 56.107 -0, 56.117 0.325, 57.625 3.242 M 88.512 5.750 C 87.661 13.485, 85.313 20.850, 82.522 24.537 C 80.499 27.209, 79.734 27.527, 76.151 27.186 C 72.147 26.804, 64.082 29.547, 64.026 31.309 C 64.012 31.754, 64.445 31.843, 64.989 31.507 C 65.555 31.157, 65.724 31.557, 65.384 32.442 C 65.057 33.293, 64.426 33.763, 63.981 33.488 C 62.826 32.774, 62.179 35.219, 63.051 37 C 64.898 40.775, 66.334 44.566, 66.175 45.250 C 66.079 45.663, 66.337 45.927, 66.750 45.839 C 67.162 45.750, 68.845 46.230, 70.490 46.905 C 79.582 50.639, 88.360 40.693, 83.583 32.069 C 82.367 29.874, 82.557 29.051, 85.544 23.569 C 88.682 17.812, 91 8.994, 91 2.816 C 91 -2.289, 89.157 -0.116, 88.512 5.750 M 71.465 29.952 C 68.484 31.160, 66.881 33.482, 66.789 36.723 C 66.604 43.227, 71.898 46.923, 77.828 44.430 C 83.511 42.041, 84.265 34.927, 79.253 30.984 C 76.565 28.870, 74.733 28.627, 71.465 29.952 M 176.378 31.437 C 172.113 33.293, 170 36.656, 170 41.588 C 170 49.625, 177.633 54.625, 186.053 52.102 C 190.590 50.743, 192.007 48.578, 189.802 46.374 C 188.508 45.079, 187.959 45.117, 185.221 46.688 C 182.194 48.425, 182.035 48.417, 179.305 46.379 C 177.405 44.960, 176.500 43.386, 176.500 41.500 C 176.500 39.614, 177.405 38.040, 179.305 36.621 C 181.945 34.650, 182.275 34.621, 184.905 36.131 C 187.496 37.618, 187.871 37.606, 190.041 35.969 L 192.382 34.203 188.941 32.105 C 185 29.703, 180.868 29.483, 176.378 31.437 M 94.845 60.886 L 94.500 67.004 98.179 67.002 C 107.033 66.997, 107.614 56.785, 98.841 55.362 L 95.189 54.769 94.845 60.886 M 107.983 59.544 C 106.454 63.565, 105.727 67, 106.405 67 C 106.747 67, 107.980 66.438, 109.144 65.750 C 110.838 64.750, 111.352 64.750, 111.714 65.750 C 111.963 66.438, 112.761 67, 113.487 67 C 114.536 67, 114.467 65.975, 113.154 62.010 C 111.334 56.520, 109.471 55.631, 107.983 59.544 M 117.250 57.662 C 115.054 58.548, 115.908 61.883, 118.750 63.520 L 121.500 65.104 118.750 64.533 C 116.706 64.109, 116 64.352, 116 65.481 C 116 67.538, 122.563 67.581, 123.351 65.529 C 123.999 63.838, 121.542 61, 119.429 61 C 118.643 61, 118 60.501, 118 59.892 C 118 59.216, 118.952 59.022, 120.439 59.395 C 123.173 60.082, 124.866 58.546, 122.412 57.605 C 120.618 56.916, 119.056 56.933, 117.250 57.662 M 125.500 62 C 125.500 65.333, 125.917 67, 126.750 67 C 127.438 67, 128 66.100, 128 65 C 128 63.889, 128.667 63, 129.500 63 C 130.333 63, 131 63.889, 131 65 C 131 66.111, 131.667 67, 132.500 67 C 133.633 67, 134 65.778, 134 62 C 134 58.222, 133.633 57, 132.500 57 C 131.667 57, 131 57.889, 131 59 C 131 60.111, 130.333 61, 129.500 61 C 128.667 61, 128 60.111, 128 59 C 128 57.900, 127.438 57, 126.750 57 C 125.917 57, 125.500 58.667, 125.500 62 M 136 62 L 136 67 140 67 C 144.189 67, 144.367 66.756, 144.006 61.500 C 143.768 58.037, 142.595 57.037, 138.750 57.015 C 136.115 57.001, 136 57.208, 136 62 M 147.473 59.030 C 146.019 60.636, 145.834 61.629, 146.586 63.780 C 148.328 68.764, 156 67.679, 156 62.449 C 156 57.488, 150.767 55.390, 147.473 59.030 M 158.983 59.544 C 157.454 63.565, 156.727 67, 157.405 67 C 157.747 67, 158.980 66.438, 160.144 65.750 C 161.838 64.750, 162.352 64.750, 162.714 65.750 C 162.963 66.438, 163.761 67, 164.487 67 C 165.536 67, 165.467 65.975, 164.154 62.010 C 162.334 56.520, 160.471 55.631, 158.983 59.544 M 167 62 C 167 65.778, 167.367 67, 168.500 67 C 169.325 67, 170.014 66.213, 170.032 65.250 C 170.062 63.583, 170.127 63.583, 171.392 65.250 C 172.753 67.042, 175 67.634, 175 66.200 C 175 65.760, 174.460 64.860, 173.800 64.200 C 172.867 63.267, 172.867 63, 173.800 63 C 175.585 63, 175.253 58.311, 173.418 57.607 C 172.548 57.273, 170.748 57, 169.418 57 C 167.183 57, 167 57.378, 167 62 M 177.847 62.001 L 177.500 67.001 181.271 67.001 C 184.307 67, 185.262 66.520, 186.163 64.541 C 187.760 61.037, 185.034 57, 181.073 57 C 178.330 57, 178.177 57.237, 177.847 62.001 M 193.500 62 C 193.500 65.333, 193.917 67, 194.750 67 C 195.438 67, 196 66.374, 196 65.608 C 196 64.843, 197.125 63.934, 198.500 63.589 C 200.288 63.140, 201 62.286, 201 60.588 C 201 58.113, 199.346 57, 195.668 57 C 193.733 57, 193.500 57.537, 193.500 62 M 203.783 62 C 202.437 66.209, 202.407 67, 203.592 67 C 204.366 67, 205 66.550, 205 66 C 205 65.450, 205.675 65, 206.500 65 C 207.325 65, 208 65.450, 208 66 C 208 66.550, 208.675 67, 209.500 67 C 211.331 67, 211.337 67.346, 209.406 61.678 C 208.529 59.105, 207.265 57, 206.597 57 C 205.929 57, 204.662 59.250, 203.783 62 M 212.500 62 C 212.500 65.333, 212.917 67, 213.750 67 C 214.441 67, 215.012 65.769, 215.027 64.250 L 215.053 61.500 216.758 64.250 C 219.437 68.570, 221 67.741, 221 62 C 221 58.512, 220.599 57, 219.673 57 C 218.772 57, 218.457 58.043, 218.690 60.250 L 219.034 63.500 217.336 60.250 C 214.683 55.175, 212.500 55.965, 212.500 62 M 223.493 61.916 L 223.500 66.831 227.250 67.192 C 229.813 67.439, 231 67.149, 231 66.276 C 231 65.574, 229.875 65, 228.500 65 C 227.125 65, 226 64.502, 226 63.893 C 226 63.284, 226.675 63.045, 227.500 63.362 C 228.392 63.704, 229 63.371, 229 62.542 C 229 61.775, 228.213 60.941, 227.250 60.689 C 226.173 60.408, 226.558 60.187, 228.250 60.116 C 232.744 59.926, 231.797 57, 227.243 57 L 223.485 57 223.493 61.916 M 232.500 61.919 L 232.500 66.838 236.250 67.195 C 238.812 67.440, 240 67.148, 240 66.276 C 240 65.568, 238.841 65, 237.395 65 C 234.959 65, 234.815 64.741, 235.171 61 C 235.466 57.914, 235.204 57, 234.026 57 C 232.865 57, 232.500 58.175, 232.500 61.919 M 98 61.500 C 98 64.435, 98.342 65.081, 99.750 64.810 C 100.949 64.579, 101.500 63.536, 101.500 61.500 C 101.500 59.464, 100.949 58.421, 99.750 58.190 C 98.342 57.919, 98 58.565, 98 61.500 M 139 60 C 139 60.550, 139.702 61, 140.559 61 C 141.416 61, 141.840 60.550, 141.500 60 C 141.160 59.450, 140.459 59, 139.941 59 C 139.423 59, 139 59.450, 139 60 M 150.104 59.936 C 148.325 61.035, 149.124 64.400, 151.261 64.812 C 152.541 65.058, 153 64.482, 153 62.632 C 153 59.741, 151.971 58.782, 150.104 59.936 M 170 60 C 170 60.550, 170.702 61, 171.559 61 C 172.416 61, 172.840 60.550, 172.500 60 C 172.160 59.450, 171.459 59, 170.941 59 C 170.423 59, 170 59.450, 170 60 M 196 60 C 196 60.550, 196.702 61, 197.559 61 C 198.416 61, 198.840 60.550, 198.500 60 C 198.160 59.450, 197.459 59, 196.941 59 C 196.423 59, 196 59.450, 196 60 M 180 62.573 C 180 65.856, 183.345 65.564, 183.820 62.240 C 184.062 60.539, 183.641 60, 182.070 60 C 180.513 60, 180 60.638, 180 62.573 M 139 64 C 139 64.550, 139.675 65, 140.500 65 C 141.325 65, 142 64.550, 142 64 C 142 63.450, 141.325 63, 140.500 63 C 139.675 63, 139 63.450, 139 64" stroke="none" fill="#93592f" fill-rule="evenodd"/><path d="M 72.962 30.810 C 67.806 32.401, 66.118 39.569, 70.223 42.443 C 76.460 46.812, 83.432 41.311, 80.499 34.334 C 79.226 31.307, 76.095 29.843, 72.962 30.810 M 87.335 31.570 C 87.003 32.434, 87.007 37.046, 87.344 41.820 C 87.680 46.594, 87.965 51.063, 87.978 51.750 C 87.990 52.467, 89.279 53, 91 53 C 93.911 53, 94 52.859, 94 48.268 L 94 43.536 96.536 47.268 C 97.931 49.321, 99.722 51, 100.516 51 C 101.310 51, 102.981 49.087, 104.230 46.750 L 106.500 42.500 106.802 47.750 C 107.095 52.828, 107.201 53, 110.052 53 L 113 53 113 41.500 L 113 30 110.184 30 C 107.906 30, 106.920 30.812, 105.020 34.250 C 100.242 42.897, 100.638 42.813, 96.539 36.064 C 93.638 31.288, 92.333 30, 90.396 30 C 89.044 30, 87.666 30.707, 87.335 31.570 M 116 41.500 L 116 53 124.917 53 C 134.106 53, 135.194 52.503, 134.221 48.750 C 133.859 47.356, 132.671 47, 128.383 47 C 124.265 47, 123 46.648, 123 45.500 C 123 44.367, 124.222 44, 128 44 C 132.667 44, 133 43.833, 133 41.500 C 133 38.953, 132.665 38.809, 126.070 38.527 C 124.734 38.470, 123.459 37.878, 123.237 37.211 C 122.953 36.359, 124.489 36, 128.417 36 C 133.954 36, 134 35.975, 134 33 L 134 30 125 30 L 116 30 116 41.500 M 136.217 41.250 L 136.500 52.500 142 52.822 C 152.990 53.464, 159 49.493, 159 41.588 C 159 33.600, 154.035 30, 143.017 30 L 135.934 30 136.217 41.250 M 161 41.500 L 161 53 164.500 53 L 168 53 168 41.500 L 168 30 164.500 30 L 161 30 161 41.500 M 198.108 34.186 C 197.076 36.559, 194.865 41.413, 193.194 44.973 C 191.524 48.533, 190.373 51.795, 190.638 52.223 C 190.902 52.650, 192.369 53, 193.899 53 C 195.927 53, 197.001 52.292, 197.872 50.382 C 198.897 48.132, 199.501 47.850, 202.158 48.382 C 203.858 48.722, 205.816 49, 206.508 49 C 207.200 49, 208.002 49.900, 208.290 51 C 208.751 52.763, 209.654 53, 215.906 53 L 223 53 223 50 C 223 46.126, 224.817 46.151, 228.039 50.070 C 230.096 52.572, 231.197 53.096, 233.840 52.829 L 237.102 52.500 234.633 49.168 C 232.200 45.883, 232.192 45.808, 234.082 43.918 C 237.141 40.859, 236.613 35.693, 232.923 32.589 C 230.265 30.352, 228.910 30, 222.957 30 L 216.068 30 215.784 40.750 L 215.500 51.500 210.889 41 C 206.547 31.115, 206.093 30.482, 203.130 30.186 C 200.271 29.901, 199.812 30.266, 198.108 34.186 M 238 41.461 L 238 53 247 53 L 256 53 256 50 C 256 47.030, 255.944 47, 250.500 47 C 246.278 47, 245 46.652, 245 45.500 C 245 44.387, 246.170 44, 249.531 44 C 252.654 44, 254.243 43.530, 254.643 42.487 C 255.627 39.923, 252.986 37.848, 249.156 38.178 C 247.029 38.361, 245.498 37.994, 245.247 37.240 C 244.950 36.351, 246.433 36, 250.483 36 C 256.057 36, 256.129 35.963, 255.816 33.250 C 255.501 30.509, 255.471 30.499, 246.750 30.211 L 238 29.922 238 41.461 M 59.602 40.416 C 56.604 45.532, 50.265 51.260, 44.836 53.758 L 41.052 55.500 41.026 61.750 L 41 68 49 68 L 57 68 57 57 L 57 46 61.607 46 C 65.613 46, 66.116 45.772, 65.466 44.250 C 65.054 43.288, 64.504 41.257, 64.243 39.738 C 63.510 35.461, 62.412 35.621, 59.602 40.416 M 143 41.500 C 143 46.738, 143.122 47, 145.566 47 C 149.909 47, 152 45.266, 152 41.665 C 152 37.527, 150.464 36, 146.300 36 L 143 36 143 41.500 M 223 38.434 C 223 40.631, 223.441 41, 226.070 41 C 228.681 41, 229.091 40.664, 228.820 38.750 C 228.591 37.139, 227.719 36.410, 225.750 36.184 C 223.382 35.911, 223 36.224, 223 38.434 M 201.710 41 C 201.329 42.457, 201.680 43, 203 43 C 204.320 43, 204.671 42.457, 204.290 41 C 204.002 39.900, 203.422 39, 203 39 C 202.578 39, 201.998 39.900, 201.710 41" stroke="none" fill="#3391f3" fill-rule="evenodd"/></svg>