<svg xmlns="http://www.w3.org/2000/svg" width="256" height="66" viewBox="0 0 256 66" version="1.1"><path d="M 72 27.720 C 67.821 29.404, 66.703 35.703, 70 39 C 74.089 43.089, 81 40.346, 81 34.634 C 81 32.846, 80.438 30.646, 79.750 29.746 C 78.331 27.888, 74.239 26.819, 72 27.720 M 59.113 37.976 C 55.639 43.337, 50.505 47.838, 44.715 50.599 C 41.008 52.367, 41 52.383, 41 58.685 L 41 65 49 65 L 57 65 57 54 L 57 43 61.607 43 C 65.613 43, 66.116 42.772, 65.466 41.250 C 65.054 40.288, 64.504 38.257, 64.243 36.738 C 63.507 32.445, 62.546 32.677, 59.113 37.976 M 83.502 48.750 C 83.991 65.454, 83.658 64, 87 64 C 89.911 64, 90 63.859, 90 59.268 L 90 54.536 92.536 58.268 C 93.931 60.321, 95.722 62, 96.516 62 C 97.310 62, 98.981 60.087, 100.230 57.750 L 102.500 53.500 102.802 58.750 C 103.095 63.828, 103.201 64, 106.052 64 L 109 64 109 52.500 L 109 41 106.187 41 C 103.788 41, 102.874 41.891, 99.967 47.059 C 96.218 53.725, 96.650 53.802, 91.775 45.591 C 89.540 41.826, 88.530 41, 86.162 41 L 83.275 41 83.502 48.750 M 112.217 52.250 L 112.500 63.500 121.124 63.787 C 129.296 64.059, 129.778 63.958, 130.325 61.864 C 131.196 58.535, 130.380 58, 124.441 58 C 120.271 58, 119 57.650, 119 56.500 C 119 55.367, 120.222 55, 124 55 C 128.615 55, 129 54.815, 129 52.594 C 129 50.465, 128.424 50.108, 124 49.500 C 117.315 48.581, 117.631 47, 124.500 47 C 129.944 47, 130 46.970, 130 44 L 130 41 120.967 41 L 111.934 41 112.217 52.250 M 132.217 52.250 L 132.500 63.500 138 63.822 C 148.990 64.464, 155 60.493, 155 52.588 C 155 44.600, 150.035 41, 139.017 41 L 131.934 41 132.217 52.250 M 157.217 52.250 L 157.500 63.500 160.750 63.813 L 164 64.127 164 52.563 L 164 41 160.467 41 L 156.934 41 157.217 52.250 M 192.558 48.582 C 190.601 52.817, 189 56.578, 189 56.941 C 189 57.303, 188.466 58.134, 187.814 58.786 C 187.161 59.439, 186.489 60.879, 186.320 61.986 C 186.064 63.663, 186.570 64, 189.346 64 C 191.968 64, 192.933 63.443, 193.868 61.391 C 194.792 59.362, 195.551 58.914, 197.278 59.377 C 198.500 59.705, 200.482 59.979, 201.683 59.986 C 202.980 59.994, 204.123 60.812, 204.501 62.002 C 205.064 63.778, 205.892 63.976, 211.818 63.752 C 218.292 63.508, 218.510 63.415, 218.816 60.750 C 219.230 57.155, 221.335 57.257, 224 61 C 225.542 63.165, 226.952 64, 229.068 64 C 232.489 64, 232.751 62.771, 230.059 59.348 C 228.139 56.906, 228.139 56.861, 230.059 54.941 C 233.141 51.859, 232.626 46.704, 228.923 43.589 C 226.265 41.352, 224.910 41, 218.957 41 L 212.068 41 211.784 51.750 L 211.500 62.500 206.889 52 C 202.579 42.188, 202.075 41.480, 199.196 41.191 C 196.249 40.895, 195.961 41.216, 192.558 48.582 M 234.217 52.250 L 234.500 63.500 243 63.500 C 251.400 63.500, 251.500 63.471, 251.500 61 C 251.500 58.689, 251.103 58.477, 246.250 58.198 C 242.473 57.980, 241 57.489, 241 56.448 C 241 55.397, 242.243 55, 245.531 55 C 248.723 55, 250.241 54.537, 250.664 53.433 C 251.590 51.021, 249.343 49.525, 244.968 49.640 C 242.222 49.712, 241 49.321, 241 48.372 C 241 47.376, 242.506 47, 246.500 47 C 251.944 47, 252 46.970, 252 44 L 252 41 242.967 41 L 233.934 41 234.217 52.250 M 139 52.500 C 139 57.738, 139.122 58, 141.566 58 C 145.909 58, 148 56.266, 148 52.665 C 148 48.527, 146.464 47, 142.300 47 L 139 47 139 52.500 M 219 50 C 219 53.181, 219.215 53.317, 222.750 52.370 C 224.285 51.958, 225 51.010, 225 49.383 C 225 47.402, 224.494 47, 222 47 C 219.333 47, 219 47.333, 219 50 M 197.710 52 C 197.329 53.457, 197.680 54, 199 54 C 200.320 54, 200.671 53.457, 200.290 52 C 200.002 50.900, 199.422 50, 199 50 C 198.578 50, 197.998 50.900, 197.710 52" stroke="none" fill="#3291f2" fill-rule="evenodd"/><path d="M 58.731 2.750 C 60.011 7.326, 59.658 23.746, 58.250 25.152 C 57.250 26.150, 57 24.059, 57 14.700 L 57 3 48.500 3 L 40 3 40 14.500 L 40 26 28 26 L 16 26 16 34.500 L 16 43 28.073 43 C 38.790 43, 40.110 43.187, 39.823 44.661 C 39.346 47.113, 33.463 48.838, 25.285 48.924 C 17.381 49.007, 10.594 47.155, 5.084 43.411 C 0.243 40.122, -0.285 41.518, 4.295 45.495 C 10.604 50.972, 18.441 53.320, 28.751 52.821 C 36.297 52.456, 38.360 51.938, 43.752 49.058 C 51.321 45.016, 57.270 38.790, 60.840 31.175 C 63.135 26.278, 63.500 24.197, 63.500 16 C 63.500 6.116, 61.917 0, 59.360 0 C 58.315 0, 58.156 0.695, 58.731 2.750 M 88.630 2.250 C 88.299 3.488, 88.019 5.400, 88.008 6.500 C 87.973 10.189, 86.049 15.531, 83.058 20.248 C 80.229 24.709, 79.953 24.880, 77.155 23.904 C 73.720 22.707, 67.383 24.838, 66.347 27.539 C 65.842 28.855, 65.544 28.911, 64.795 27.834 C 64.151 26.906, 64.050 27.148, 64.464 28.632 C 64.849 30.009, 64.541 30.962, 63.594 31.326 C 62.356 31.801, 62.454 32.559, 64.220 36.194 C 65.371 38.562, 66.318 41.063, 66.323 41.750 C 66.329 42.438, 66.520 42.813, 66.748 42.585 C 66.976 42.357, 68.740 42.829, 70.667 43.634 C 79.944 47.511, 89.133 36.345, 83.400 28.161 C 81.984 26.139, 81.971 25.684, 83.284 24.189 C 86.929 20.038, 91 7.971, 91 1.316 C 91 -0.850, 89.279 -0.172, 88.630 2.250 M 69.389 28.342 C 65.892 31.350, 65.732 36.021, 69.008 39.508 C 74.900 45.781, 85.320 39.014, 82.023 31.056 C 79.883 25.890, 73.767 24.576, 69.389 28.342 M 172.378 42.385 C 168.096 44.320, 166 47.673, 166 52.588 C 166 60.154, 172.574 64.923, 181.034 63.494 C 185.865 62.678, 188.291 59.417, 185.555 57.417 C 184.176 56.408, 183.317 56.485, 180.984 57.824 C 178.255 59.390, 177.970 59.368, 175.305 57.379 C 173.405 55.960, 172.500 54.386, 172.500 52.500 C 172.500 50.614, 173.405 49.040, 175.305 47.621 C 177.937 45.657, 178.282 45.625, 180.879 47.116 C 183.442 48.587, 183.811 48.571, 185.869 46.905 L 188.091 45.106 185.584 43.463 C 182.116 41.190, 176.106 40.700, 172.378 42.385" stroke="none" fill="#93592f" fill-rule="evenodd"/></svg>